<?xml version="1.0" encoding="UTF-8"?>
<svg version="1.1" xmlns="http://www.w3.org/2000/svg" width="1457" height="1457">
<path d="M0 0 C2.81475887 2.70364997 5.17564648 5.49527837 7.5 8.625 C24.76986815 30.33204314 54.55371353 41.72834779 78.62451172 54.11303711 C84.24850472 57.01636132 89.79997762 59.97001691 95.25 63.1875 C104.83375492 68.77407001 114.95836375 73.30731469 125 78 C126.07491699 78.50644043 127.14983398 79.01288086 128.25732422 79.53466797 C141.35888772 85.70660699 154.48800949 91.62642686 168.00146484 96.83740234 C170.77333552 97.91211722 173.53895545 99.00173266 176.30282593 100.09683228 C197.02994918 108.3048659 217.91429194 116.06190678 238.8432312 123.7388916 C258.87214069 131.08671134 278.83503777 138.58846453 298.75369263 146.22943115 C304.41177477 148.39793371 310.07825917 150.54327691 315.75 152.67578125 C357.15412358 168.24566922 397.6538328 185.11032018 437.16699219 205.07763672 C439.03740837 206.01882376 440.91242686 206.95018759 442.7890625 207.87890625 C467.80500472 220.26856511 491.80403716 233.73485718 515.0625 249.1875 C515.759198 249.64895416 516.455896 250.11040833 517.17370605 250.58584595 C525.39333533 256.04202101 533.38458016 261.68268881 541.14892578 267.77148438 C544.00215456 270.00168409 546.89717303 272.16435058 549.8125 274.3125 C560.19228927 282.08015687 570.28430703 290.25055946 579.8359375 299.01953125 C581.89991208 300.90840329 584.00290254 302.7394626 586.125 304.5625 C589.60433806 307.58679385 592.83248742 310.81086611 596.0625 314.09765625 C597.83246478 315.83550473 599.64906999 317.42398287 601.5625 319 C604.79455519 321.70556657 607.45835999 324.72281287 610.18359375 327.9296875 C612.04274652 330.04872183 613.98961399 332.02447617 616 334 C626.43895349 344.31686047 626.43895349 344.31686047 628 349 C628.99 349.33 629.98 349.66 631 350 C632.69140625 351.86328125 632.69140625 351.86328125 634.5625 354.3125 C637.50209537 358.10036337 640.50935407 361.7931695 643.625 365.4375 C650.49047894 373.65287342 656.7513573 382.3111672 663 391 C663.48082031 391.66483398 663.96164062 392.32966797 664.45703125 393.01464844 C680.30254766 415.0362631 694.27331966 439.06874439 705 464 C705.01458252 463.27748047 705.02916504 462.55496094 705.04418945 461.81054688 C705.98490382 419.71441016 713.13732599 378.9809637 732 341 C732.37060547 340.24251465 732.74121094 339.4850293 733.12304688 338.70458984 C741.43903796 321.8408392 751.55816683 306.54431071 763.50390625 292.0390625 C764.96153958 290.264354 766.38485946 288.45821606 767.71484375 286.5859375 C768.13894531 286.06257813 768.56304688 285.53921875 769 285 C769.66 285 770.32 285 771 285 C771.24838623 284.42636719 771.49677246 283.85273438 771.75268555 283.26171875 C773.18822932 280.65868928 774.84966758 278.90769892 776.95703125 276.8125 C777.74013672 276.03132813 778.52324219 275.25015625 779.33007812 274.4453125 C780.14927734 273.63835937 780.96847656 272.83140625 781.8125 272 C782.62009766 271.19304687 783.42769531 270.38609375 784.25976562 269.5546875 C794.89282952 259 794.89282952 259 798 259 C798 258.34 798 257.68 798 257 C799.33496094 255.77001953 799.33496094 255.77001953 801.234375 254.3828125 C801.94287598 253.86460937 802.65137695 253.34640625 803.38134766 252.8125 C804.16300293 252.255625 804.9446582 251.69875 805.75 251.125 C806.96695557 250.25488281 806.96695557 250.25488281 808.20849609 249.3671875 C817.16926599 243.05122634 826.4763272 237.41964301 836 232 C836.95745117 231.45279297 837.91490234 230.90558594 838.90136719 230.34179688 C856.22099202 220.51097692 873.36244627 212.73006218 892.5 207.1875 C893.44738037 206.90922363 894.39476074 206.63094727 895.37084961 206.34423828 C912.01112984 201.76296157 928.6878688 200.46674057 945.875 200.625 C946.7929837 200.62998505 947.71096741 200.63497009 948.6567688 200.6401062 C962.28074245 200.72665506 975.64822796 201.04433879 989 204 C990.04575195 204.23106445 991.09150391 204.46212891 992.16894531 204.70019531 C1033.19521127 214.06450236 1069.13624614 232.34845827 1101.17797852 259.46069336 C1102.89307757 260.90966824 1104.61846281 262.34524451 1106.34765625 263.77734375 C1114.45177763 270.5685736 1121.27800342 278.8696978 1128 287 C1128.57105469 286.83395264 1129.14210938 286.66790527 1129.73046875 286.49682617 C1170.17610175 274.91050265 1215.98332108 271.39388662 1253.90966797 292.03955078 C1263.72799325 297.624603 1272.25284756 304.79366983 1280 313 C1280 313.66 1280 314.32 1280 315 C1278.94941406 315.24234375 1277.89882812 315.4846875 1276.81640625 315.734375 C1269.19491978 317.53504089 1261.98011698 319.35653235 1255 323 C1254.13117188 323.41894531 1253.26234375 323.83789062 1252.3671875 324.26953125 C1243.09640087 328.9565724 1236.2546254 335.68939756 1229 343 C1228.17242188 343.83015625 1227.34484375 344.6603125 1226.4921875 345.515625 C1216.47238049 355.98408009 1208.94538925 367.90383862 1202.1875 380.6875 C1201.83147705 381.33428711 1201.4754541 381.98107422 1201.10864258 382.64746094 C1199.63525479 385.56746851 1198.92421675 387.51085358 1199.4296875 390.7734375 C1201.77242601 395.58712408 1204.33065762 400.26250269 1206.9375 404.9375 C1212.99593448 415.95628826 1218.54089374 427.150982 1223.85107422 438.54638672 C1224.82383429 440.62378551 1225.81278311 442.6913152 1226.81640625 444.75390625 C1261.36335923 516.59491931 1280.44043141 597.53252616 1285.203125 695.16796875 C1285.20595238 695.91465631 1285.20877975 696.66134388 1285.21169281 697.43065834 C1285.2265645 701.4014481 1285.23586317 705.37220282 1285.24023438 709.34301758 C1285.24456656 712.5351945 1285.25826863 715.7270931 1285.28125 718.91918945 C1285.48682156 748.10833841 1283.9764402 777.08859311 1279.75 806 C1279.64773102 806.71506714 1279.54546204 807.43013428 1279.44009399 808.16687012 C1270.31704243 871.70563379 1251.97526674 933.33380286 1226 992 C1225.67338379 992.74040527 1225.34676758 993.48081055 1225.01025391 994.24365234 C1220.87006105 1003.55852282 1216.14416482 1012.54523248 1211.35546875 1021.5390625 C1209.42008006 1025.18223755 1207.56449679 1028.85730708 1205.75 1032.5625 C1203.54234243 1037.02742542 1201.09946394 1041.27373483 1198.4921875 1045.515625 C1196.95418734 1048.07627447 1195.5333379 1050.67852749 1194.125 1053.3125 C1190.67308075 1059.7026064 1186.86111377 1065.8508188 1183 1072 C1182.41089844 1072.93972656 1181.82179688 1073.87945313 1181.21484375 1074.84765625 C1176.92341738 1081.64160005 1172.49545534 1088.33973943 1168 1095 C1167.51724609 1095.71784668 1167.03449219 1096.43569336 1166.53710938 1097.17529297 C1159.66419861 1107.38084511 1152.63416845 1117.34900336 1145 1127 C1143.79062453 1128.56169353 1142.58219875 1130.12412324 1141.375 1131.6875 C1134.12623221 1140.97603733 1126.65728878 1150.04721826 1119 1159 C1118.39414063 1159.70898438 1117.78828125 1160.41796875 1117.1640625 1161.1484375 C1112.13999108 1166.95675422 1106.90401911 1172.573781 1101.67431641 1178.19628906 C1100.01090773 1179.9882493 1098.35484498 1181.78678799 1096.69921875 1183.5859375 C1088.99550445 1191.91937134 1081.07674671 1200.02889173 1073.0625 1208.0625 C1072.57204193 1208.55554626 1072.08158386 1209.04859253 1071.57626343 1209.55657959 C1065.89936731 1215.25714778 1060.15224651 1220.81048086 1054 1226 C1053.16311646 1226.71144165 1053.16311646 1226.71144165 1052.30932617 1227.43725586 C1050.73080429 1228.77520024 1049.14732708 1230.10703397 1047.5625 1231.4375 C1043.7865328 1234.61731911 1040.04570757 1237.82334023 1036.375 1241.125 C1022.70306888 1253.36964161 1007.86532216 1264.26499142 993 1275 C992.17508057 1275.59651367 992.17508057 1275.59651367 991.33349609 1276.20507812 C968.04824707 1293.02256795 943.58318546 1310.24392337 917.640625 1322.68359375 C915.07933512 1323.9604498 912.68040898 1325.36605403 910.25 1326.875 C903.40581262 1331.0545744 896.20156719 1334.49102491 889 1338 C887.99098633 1338.49483887 886.98197266 1338.98967773 885.94238281 1339.49951172 C872.62642728 1346.02389772 859.30333461 1352.39461424 845.5546875 1357.95605469 C842.71391387 1359.11690599 839.8884917 1360.31144006 837.0625 1361.5078125 C765.02453512 1391.76736594 686.85651687 1410.04696788 609 1416 C608.33319214 1416.05113953 607.66638428 1416.10227905 606.97937012 1416.15496826 C529.00151164 1422.04808434 450.03469989 1416.47467631 374 1398 C372.22713623 1397.57364258 372.22713623 1397.57364258 370.41845703 1397.13867188 C328.80258114 1387.0413835 288.18205144 1373.27629303 249 1356 C248.07880371 1355.59652344 247.15760742 1355.19304687 246.20849609 1354.77734375 C234.96735365 1349.84369731 223.91442878 1344.61737433 213 1339 C212.1244043 1338.55253418 211.24880859 1338.10506836 210.34667969 1337.64404297 C192.0054633 1328.26009185 174.40165003 1318.01205689 157 1307 C156.00226563 1306.37222656 155.00453125 1305.74445313 153.9765625 1305.09765625 C132.72471398 1291.67062875 112.47331015 1276.89201173 93 1261 C92.05640625 1260.23236328 92.05640625 1260.23236328 91.09375 1259.44921875 C82.54800428 1252.49009126 74.09666624 1245.48206782 66 1238 C64.64261719 1236.7625 64.64261719 1236.7625 63.2578125 1235.5 C60.73090262 1233.19427852 58.21104368 1230.88143988 55.69628906 1228.5625 C54.50436533 1227.46458522 53.31086426 1226.36838156 52.11621094 1225.2734375 C38.47422034 1212.76207342 38.47422034 1212.76207342 33.34375 1206.59765625 C32.10038923 1205.11935812 30.74089007 1203.74089007 29.375 1202.375 C27 1200 27 1200 24.5 1196.9375 C22.17829404 1194.00934181 22.17829404 1194.00934181 19.6015625 1192.12890625 C16.93083433 1189.94340046 14.99869063 1187.71315609 12.875 1185 C9.58573107 1180.88705013 6.16608139 1176.96215271 2.5625 1173.125 C-2.52614141 1167.6622585 -7.07692899 1161.86165091 -11.55908203 1155.89550781 C-13.19436835 1153.74431111 -14.85827153 1151.6172733 -16.52734375 1149.4921875 C-17.14311279 1148.70730957 -17.75888184 1147.92243164 -18.39331055 1147.11376953 C-19.59453577 1145.58447793 -20.79769642 1144.05670374 -22.00317383 1142.53076172 C-25.42000764 1138.16636132 -28.5988244 1133.71160186 -31.63769531 1129.07617188 C-33.45584801 1126.3052811 -35.35197925 1123.59163275 -37.25 1120.875 C-38.43968387 1119.15567609 -39.62730527 1117.43494297 -40.81445312 1115.71386719 C-41.93832878 1114.08915403 -43.07049227 1112.47018303 -44.203125 1110.8515625 C-52.50310739 1098.82008295 -59.68501198 1086.08134654 -67.00366211 1073.44042969 C-68.92344666 1070.13192976 -70.85943674 1066.83333796 -72.796875 1063.53515625 C-76.88776233 1056.51929902 -80.48013661 1049.31574195 -84 1042 C-84.50450684 1040.95521484 -85.00901367 1039.91042969 -85.52880859 1038.83398438 C-96.63285678 1015.73652547 -106.34656199 992.27285555 -115.125 968.1875 C-115.49149658 967.18614014 -115.85799316 966.18478027 -116.2355957 965.15307617 C-118.26331278 959.47963325 -119.82167889 953.909827 -121 948 C-118.02214665 950.6751304 -115.95925522 953.89599946 -113.7890625 957.22265625 C-112.95442705 958.48768388 -112.11970693 959.75265566 -111.28491211 961.01757812 C-110.85064911 961.67830322 -110.41638611 962.33902832 -109.96896362 963.01977539 C-101.93698973 975.22777749 -93.79489382 987.32365688 -85 999 C-84.29206299 999.94117676 -84.29206299 999.94117676 -83.56982422 1000.90136719 C-77.96283361 1008.30653495 -72.06009916 1015.31542486 -65.71484375 1022.09765625 C-63.85131201 1024.08989234 -62.01039917 1026.08936793 -60.19140625 1028.12109375 C-59.73902588 1028.62552002 -59.28664551 1029.12994629 -58.82055664 1029.6496582 C-57.57712431 1031.03883579 -56.33538093 1032.42952461 -55.09375 1033.8203125 C-53.00284059 1036.15395582 -53.00284059 1036.15395582 -50 1038 C-50 1038.66 -50 1039.32 -50 1040 C-49.17048828 1040.34611328 -49.17048828 1040.34611328 -48.32421875 1040.69921875 C-45.36348427 1042.35623486 -43.2572257 1044.45742573 -40.8125 1046.8125 C-34.01845011 1053.20301676 -26.66456896 1058.7499851 -19.20556641 1064.33398438 C-17.02981482 1065.97747882 -14.87726584 1067.64703522 -12.73046875 1069.328125 C-3.15960038 1076.80512447 6.67438932 1083.6079553 17 1090 C17.63647461 1090.39670898 18.27294922 1090.79341797 18.92871094 1091.20214844 C22.63513252 1093.50395008 26.37251675 1095.74225061 30.15039062 1097.92480469 C31.35286071 1098.62381185 32.54987003 1099.33232885 33.74023438 1100.05175781 C59.16003316 1115.35202864 89.85865263 1123.18725148 118 1132 C116.37014801 1130.37014801 114.27264399 1129.71348983 112.1796875 1128.77734375 C110.67474731 1128.09901489 110.67474731 1128.09901489 109.1394043 1127.40698242 C108.06215088 1126.92205322 106.98489746 1126.43712402 105.875 1125.9375 C96.37259744 1121.62268718 87.124808 1117.05548369 78 1112 C77.13761719 1111.54882812 76.27523437 1111.09765625 75.38671875 1110.6328125 C54.49007139 1099.6482607 35.6819451 1085.77087932 17.0859375 1071.34375 C13.8755863 1068.90550858 10.60815769 1066.57032621 7.3125 1064.25 C-18.27402659 1046.17256273 -43.46677631 1025.61503799 -63 1001 C-63.93470213 999.85424687 -64.87097511 998.70977391 -65.80859375 997.56640625 C-73.33354115 988.35026468 -80.28589257 978.81952841 -87 969 C-87.61391602 968.10635742 -88.22783203 967.21271484 -88.86035156 966.29199219 C-113.68467128 930.03883768 -139.42406134 888.91528834 -145.30761719 844.63378906 C-145.62267304 842.26747725 -145.95094644 839.90328889 -146.28125 837.5390625 C-149.85255689 811.59675819 -149.85255689 811.59675819 -147.6875 801.5 C-147.42324219 800.2109375 -147.15898437 798.921875 -146.88671875 797.59375 C-146.07931097 794.32143654 -145.12248855 791.17629947 -144 788 C-141.1488265 790.44269592 -140.11969383 792.82507674 -138.8125 796.3125 C-129.01816936 820.45264435 -111.77316872 844.21723633 -93.765625 862.9609375 C-92 865 -92 865 -92 867 C-91.443125 867.20625 -90.88625 867.4125 -90.3125 867.625 C-87.74687461 869.15050699 -86.30151891 870.99392319 -84.4609375 873.30859375 C-82.29884394 875.81176624 -79.81975841 877.87153577 -77.3046875 880.01171875 C-73.7551388 883.07395652 -70.34013697 886.28183056 -66.90625 889.47265625 C-63.40580323 892.51672757 -59.73355499 895.25132505 -56 898 C-54.68474039 898.99067908 -53.36963638 899.98156477 -52.0546875 900.97265625 C-41.31532278 908.95840363 -30.15838959 915.91682669 -18.5390625 922.546875 C-16.26569897 923.84793843 -14.00587868 925.16894515 -11.75 926.5 C67.3225408 972.74626126 166.55550796 983.74000678 265 977 C265.68519714 976.94908203 266.37039429 976.89816406 267.07635498 976.84570312 C271.5972048 976.50512714 276.11100683 976.11090346 280.625 975.6875 C281.74994873 975.59428467 282.87489746 975.50106934 284.03393555 975.4050293 C292.88186863 974.48823268 299.47424332 971.92460814 305.625 965.375 C312.8881172 956.39211023 318.03718107 946.3204761 323.03613281 935.9753418 C324 934 324 934 325.53222656 931.51098633 C327.64147094 926.46556993 327.87062356 921.54462699 328.28125 916.125 C328.42932098 914.35980263 328.42932098 914.35980263 328.5803833 912.5589447 C328.89967778 908.70688394 329.2004285 904.8536409 329.5 901 C329.66069693 899.00066432 329.8231437 897.00147582 329.98571396 895.00229168 C331.93327247 871.02105153 333.65150911 847.02265465 335 823 C335.07202637 821.72125 335.14405273 820.4425 335.21826172 819.125 C339.74236597 734.6430532 327.17583381 654.61995965 273 587 C272.40316406 586.24203125 271.80632812 585.4840625 271.19140625 584.703125 C266.94755866 579.34067774 262.58187494 574.09303711 258.13769531 568.89648438 C255.16600063 565.4141258 252.32021676 561.85725399 249.5 558.25 C244.95641097 552.63442082 239.75135038 548.35382599 234 544 C234.33 543.01 234.66 542.02 235 541 C249.23722214 541.66998692 261.91986585 546.34192517 274.5625 552.625 C275.19341553 552.93435486 275.82433105 553.24370972 276.47436523 553.56243896 C291.60080909 560.99888962 304.03331519 570.13596574 316 582 C316.88558594 582.87269531 317.77117187 583.74539063 318.68359375 584.64453125 C325.77098881 592.01940255 330.89450593 600.2065291 336 609 C336.5367334 609.91620117 337.0734668 610.83240234 337.62646484 611.77636719 C378.47532563 681.84583356 392.79133919 758.54718273 392 839 C400.41313275 798.58348986 404.87023868 758.04933191 398 717 C397.8443457 715.9992041 397.68869141 714.9984082 397.52832031 713.96728516 C393.15985251 686.25236518 384.56339849 659.52158365 373 634 C372.65227539 633.21786133 372.30455078 632.43572266 371.94628906 631.62988281 C356.61594693 597.21513427 334.98717007 565.38393949 311.58447266 535.99755859 C310.07796441 534.09829042 308.58838793 532.18724908 307.10546875 530.26953125 C298.30312533 518.90373114 288.96207054 508.05033085 279.2421875 497.4609375 C277.22971893 495.25213053 275.26341984 493.01306702 273.3125 490.75 C270.47068819 487.46161776 267.44316512 484.4298044 264.28515625 481.4453125 C263 480 263 480 263 478 C262.44828125 477.77699219 261.8965625 477.55398438 261.328125 477.32421875 C258.2694324 475.58445903 256.1926188 473.34235518 253.75 470.8125 C249.33858285 466.30920871 244.81893785 462.06252609 240 458 C239.01128906 457.15695312 238.02257812 456.31390625 237.00390625 455.4453125 C230.96941711 450.30729358 224.88241718 445.24022886 218.734375 440.23828125 C215.86569568 437.89006232 213.02619413 435.50935288 210.1875 433.125 C205.27145785 429.01663877 200.2642029 425.04451857 195.21166992 421.10595703 C190.4097847 417.35140745 185.73464731 413.4594166 181.0703125 409.53515625 C177.72070121 406.76938306 174.30658016 404.10008436 170.875 401.4375 C165.86683457 397.54384688 161.10144946 393.48008302 156.4296875 389.18359375 C153.82999771 386.84721659 151.15310364 384.63781597 148.4375 382.4375 C141.63882342 376.92739861 135.17916187 371.19544646 129 365 C127.31556423 363.32635976 125.63065022 361.65320074 123.9453125 359.98046875 C122.49911726 358.54165542 121.05340855 357.10235519 119.60791016 355.6628418 C118.623788 354.68374233 117.63876938 353.70554305 116.65283203 352.72827148 C107.7918305 343.94276462 99.70051669 334.81465855 92 325 C91.24976563 324.04480469 90.49953125 323.08960938 89.7265625 322.10546875 C87.12359791 318.75699488 84.5515692 315.3877164 82 312 C81.49807129 311.33468262 80.99614258 310.66936523 80.47900391 309.98388672 C60.56382096 283.42826372 44.86297056 253.98146195 33 223 C32.58266602 221.91138672 32.16533203 220.82277344 31.73535156 219.70117188 C15.75607183 177.53329212 15.75607183 177.53329212 14 158 C17.68879072 159.62096504 20.55091972 161.92743255 23.6875 164.4375 C60.649222 193.32518709 105.53879506 214.36191579 149.66650391 229.50683594 C154.69558773 231.23501817 159.7125019 232.99766953 164.73046875 234.7578125 C181.84726742 240.75347757 198.97397374 246.69948313 216.20776367 252.35098267 C279.28940837 273.06108386 338.80901902 298.33678842 379.76171875 353.34716797 C381.75882623 356.01286545 383.82490191 358.62495452 385.875 361.25 C391.53895646 368.59539053 396.92603538 376.14162435 402.33105469 383.67822266 C403.95670727 385.9397727 405.5899861 388.1955644 407.2265625 390.44921875 C422.85532097 411.97562192 437.86140778 433.594782 450.8371582 456.84375 C456.02580235 466.12321654 461.44024559 475.26135088 466.88378906 484.39257812 C467.53573242 485.48634766 468.18767578 486.58011719 468.859375 487.70703125 C469.44170898 488.6813208 470.02404297 489.65561035 470.62402344 490.65942383 C471.45994666 492.08135356 472.26234808 493.52469616 473 495 C471.99901266 485.07807462 468.66818703 476.81362121 464.5625 467.875 C463.59901134 465.73651612 462.64038292 463.59589427 461.68188477 461.45516968 C461.03784697 460.01777113 460.39217889 458.58110193 459.74487305 457.14517212 C457.36978205 451.86857047 455.11059911 446.55082469 452.89916992 441.20336914 C439.93407898 409.87996777 425.71009571 379.05892833 405 352 C404.57299805 351.43845215 404.14599609 350.8769043 403.70605469 350.29833984 C398.55305465 343.54230953 393.20011193 336.96555798 387.6875 330.5 C387.20812988 329.93667969 386.72875977 329.37335938 386.23486328 328.79296875 C383.80706485 325.97608389 381.31713442 323.30599901 378.64453125 320.71875 C376 318 376 318 376 316 C375.34 316 374.68 316 374 316 C371.70137153 313.83658497 369.5413135 311.57932341 367.38671875 309.2734375 C345.43560318 286.42923585 315.47943134 270.10105137 288 255 C287.14744629 254.5270752 286.29489258 254.05415039 285.41650391 253.56689453 C249.20524051 233.56941776 209.14720062 219.27514218 170.35546875 205.21875 C149.11689589 197.52115774 127.95255662 189.68045671 108 179 C107.31341309 178.63471191 106.62682617 178.26942383 105.91943359 177.89306641 C81.88213429 165.02856927 57.91587701 150.75868538 38 132 C37.46592529 131.49871582 36.93185059 130.99743164 36.3815918 130.48095703 C31.72293775 125.98388606 27.85791414 121.11116774 24.0625 115.875 C23.45277344 115.0389624 22.84304687 114.2029248 22.21484375 113.34155273 C6.47950091 91.56526112 -1.17620641 73.6864073 -1.1328125 46.8359375 C-1.13376923 45.5221109 -1.13472595 44.2082843 -1.13571167 42.85464478 C-1.1371728 40.09986165 -1.13508224 37.3451113 -1.13037109 34.59033203 C-1.12461822 31.05395655 -1.12799744 27.51765605 -1.13394356 23.98128319 C-1.13840761 20.59949512 -1.13529318 17.2177277 -1.1328125 13.8359375 C-1.13483673 12.56317963 -1.13686096 11.29042175 -1.13894653 9.97909546 C-1.13421829 8.23059799 -1.13421829 8.23059799 -1.12939453 6.44677734 C-1.12859894 5.41628265 -1.12780334 4.38578796 -1.12698364 3.32406616 C-1 1 -1 1 0 0 Z M927 334 C926.0925 334.5775 925.185 335.155 924.25 335.75 C915.98295702 344.01704298 911.65405852 354.2826977 911.5 365.9375 C911.66043481 378.08613935 915.53006516 387.20935719 923.8125 395.90234375 C930.60410707 402.37901742 937.50191096 405.17023416 946.875 405.5625 C956.20929175 405.23782898 963.92484072 402.67818193 970.4375 395.8125 C979.40279526 384.64323632 980.89826048 373.88644168 980 360 C978.86375484 352.54700211 975.47588454 346.95636942 971 341 C970.2575 339.948125 969.515 338.89625 968.75 337.8125 C962.78233534 331.7092066 957.61753531 328.73079174 949.01660156 328.33642578 C940.66431662 328.25701911 933.96211123 328.98961033 927 334 Z " fill="#000000" transform="translate(157,11)"/>
</svg>
